<svg width="267" height="53" viewBox="0 0 267 53" fill="none" xmlns="http://www.w3.org/2000/svg">
<g clip-path="url(#clip0_9_31)">
<path d="M231.597 42.1705L256.594 41.2272L252.177 18.3202L223.764 16.7026L231.597 42.1705Z" fill="#FCD821"/>
<path d="M68.1689 10.8827L85.8072 24.9593L104.438 49.1349L68.3314 51.0926L68.1689 10.8827Z" fill="#FCD821"/>
<path d="M98.5146 9.59631L116.1 23.6906L115.228 48.57L97.4097 30.9862L98.5146 9.59631Z" fill="#FCD821"/>
<path d="M185.938 4.43588L203.576 18.5124L219.858 42.8152L185.276 44.6901L185.938 4.43588Z" fill="#FCD821"/>
<path d="M68.1778 10.8679L54.6699 11.6072V11.9917L32.1242 13.2249V14.112L16.2852 14.9785V28.1413L19.863 27.9461V51.9709L33.8939 51.2049V38.054L34.1746 38.0392V53.0029L68.7391 51.1133V38.5686L68.1807 38.5981V30.3563L71.8325 30.1552V17.4567L68.1807 17.6578V10.8679H68.1778Z" fill="#FCEE21"/>
<path d="M162.201 28.5198C162.352 28.5198 162.506 28.5169 162.665 28.508C164.71 28.3956 166.438 27.5705 167.661 26.1215C168.799 24.773 169.399 23.108 169.399 21.3041V18.9146C169.399 17.0575 168.763 15.3925 167.561 14.0973C166.651 13.1184 165.008 11.9799 162.326 12.1277C160.281 12.2401 158.553 13.0652 157.33 14.5142C156.192 15.8627 155.592 17.5277 155.592 19.3316V21.7211C155.592 23.5812 156.227 25.2461 157.43 26.5384C158.284 27.4582 159.794 28.5198 162.201 28.5198ZM161.794 19.3286C161.794 18.9265 161.903 18.7135 162.069 18.5184C162.116 18.4622 162.21 18.3498 162.662 18.3261C162.86 18.3143 162.984 18.3321 163.035 18.3468C163.103 18.4237 163.191 18.5509 163.191 18.9146V21.3041C163.191 21.7063 163.082 21.9192 162.916 22.1144C162.869 22.1706 162.775 22.283 162.323 22.3066C162.11 22.3184 161.995 22.2977 161.95 22.2859C161.882 22.209 161.794 22.0848 161.794 21.7181V19.3286Z" fill="#FCEE21"/>
<path d="M172.436 8.77713C172.382 8.73277 172.329 8.68842 172.276 8.64406C170.946 7.54396 169.387 6.73071 167.643 6.22502C165.971 5.74003 164.184 5.54485 162.325 5.64835C160.479 5.7489 158.706 6.13334 157.057 6.79281C155.362 7.47002 153.852 8.42226 152.567 9.62587C151.267 10.8443 150.221 12.317 149.456 14.0026C149.376 14.1771 149.305 14.3516 149.234 14.529V6.43794L135.726 7.17726V7.5617L114.95 8.69729V8.31284L101.442 9.05216V30.3888C100.503 28.7623 99.6695 27.1328 98.9545 25.533L98.9249 25.4679C98.7949 25.1958 98.6974 24.8173 98.6413 24.3737C98.5586 23.732 98.5172 23.0932 98.5172 22.4811V9.59629L84.4864 10.3622V22.904C84.4864 23.5132 84.445 24.1578 84.3623 24.8173C84.3032 25.2964 84.1968 25.7015 84.052 26.0239L84.0255 26.083C83.1598 28.1176 82.0666 30.2794 80.7814 32.5121C79.4756 34.7774 78.0131 37.0751 76.4324 39.3404L74.71 41.8097L85.0241 49.4897L86.8736 46.9849C88.1647 45.2372 89.4676 43.4037 90.741 41.5347C91.0306 41.1118 91.3112 40.6889 91.586 40.2719C91.8046 40.5795 92.0262 40.89 92.2537 41.2005C93.5064 42.9157 94.8153 44.6043 96.1418 46.222L98.2602 48.8036L101.439 45.7784V49.3241L114.947 48.5848V35.354L115.228 35.975V48.5671L149.792 46.6774V44.8646L172.433 43.6284V45.4412L185.94 44.7019V4.42996L172.433 5.16928V8.77713H172.436Z" fill="#FCEE21"/>
<path d="M253.492 0.739315V2.629L250.641 2.78574V0.00591452L236.758 0.76593V3.5428L231.596 3.82374V1.93405L218.088 2.67336V2.86558L207.931 3.42155L194.423 4.16086V27.195L197.256 27.0412V44.0484L231.596 42.1705V24.2821L232.66 25.7843V34.9016L253.492 33.763V41.2065L267 40.4671V0L253.492 0.739315Z" fill="#FCEE21"/>
<path d="M30.7886 48.7238L22.9622 49.1526V25.1249L19.3843 25.32V18.3794L30.7886 17.7554V48.7238Z" fill="#CA4491"/>
<path d="M54.8646 34.2569L35.2231 35.3304V16.6257L54.8646 15.5522V34.2569ZM65.6337 48.6321L37.2736 50.1817V37.4921L44.5771 37.0929V43.4569L65.6337 42.3065V48.6321ZM47.5611 28.2921V22.3155L42.5296 22.5905V28.5671L47.5611 28.2921ZM65.0753 39.021L57.7718 39.4203V15.0081L65.0753 14.6089V21.3958L68.727 21.1947V27.674L65.0753 27.8751V39.021Z" fill="#662D91"/>
<path d="M98.5407 44.7108C97.2496 43.1346 95.988 41.5081 94.759 39.8284C93.5299 38.1487 92.4426 36.5103 91.4972 34.9164C90.5518 36.6138 89.4468 38.3912 88.1793 40.2454C86.9118 42.1025 85.6444 43.8857 84.3769 45.6009L78.9731 41.5761C80.6129 39.2251 82.1108 36.8741 83.464 34.5231C84.8171 32.175 85.9546 29.9186 86.8734 27.7598C87.1453 27.1536 87.3343 26.4557 87.4318 25.6661C87.5293 24.8765 87.5796 24.1105 87.5796 23.3624V13.7631L95.406 13.3343V22.9365C95.406 23.6817 95.4562 24.4447 95.5537 25.2225C95.6542 26.0002 95.8403 26.6774 96.1121 27.2541C97.031 29.3124 98.1182 31.3795 99.3739 33.4584C100.627 35.5374 102.039 37.6785 103.605 39.8787L98.5407 44.7108ZM111.848 46.1037L104.544 46.5029V12.4501L111.848 12.0508V46.1037Z" fill="#662D91"/>
<path d="M135.325 19.5238C135.325 21.2982 134.94 22.7857 134.169 23.9834C133.398 25.1811 132.181 26.2398 130.518 27.1536C128.455 28.2684 126.349 29.3685 124.201 30.4479C122.053 31.5303 119.772 32.586 117.361 33.6181L114.752 27.8219C116.962 26.7514 119.131 25.6542 121.255 24.5364C123.38 23.4185 125.3 22.348 127.014 21.3307C127.362 21.1326 127.616 20.8723 127.779 20.5559C127.941 20.2395 128.021 19.8876 128.021 19.5002V17.9565L116.283 18.5982V12.1957L135.327 11.1548V19.5238H135.325ZM146.693 44.1992L118.333 45.7488V34.0262L125.637 33.627V39.027L146.693 37.8766V44.1992ZM146.132 34.5881L138.829 34.9873V10.5781L146.132 10.1789V18.3173L149.784 18.1191V24.5985L146.132 24.7966V34.5881Z" fill="#662D91"/>
<path d="M182.841 42.2237L175.538 42.623V37.5335L172.371 40.9846L151.353 42.135V35.6557L175.541 34.3338V8.57013L182.844 8.1709V42.2237H182.841ZM173.6 21.3632C173.6 23.0104 173.301 24.492 172.705 25.808C172.108 27.1269 171.307 28.2566 170.303 29.197C169.295 30.1404 168.122 30.8767 166.781 31.415C165.44 31.9502 164.01 32.2607 162.494 32.3435C160.978 32.4263 159.548 32.2726 158.207 31.8822C156.866 31.4918 155.693 30.8827 154.685 30.0517C153.678 29.2207 152.877 28.1768 152.28 26.9258C151.683 25.672 151.385 24.2229 151.385 22.5787V20.1892C151.385 18.545 151.683 17.0634 152.28 15.7444C152.877 14.4255 153.678 13.2958 154.685 12.3554C155.693 11.4121 156.866 10.6757 158.207 10.1375C159.548 9.60221 160.978 9.2917 162.494 9.2089C164.01 9.12609 165.437 9.27987 166.781 9.66727C168.122 10.0576 169.295 10.6668 170.303 11.5008C171.31 12.3318 172.111 13.3757 172.705 14.6296C173.301 15.8834 173.6 17.3325 173.6 18.9767V21.3632ZM166.296 19.373C166.296 18.2936 165.96 17.3916 165.289 16.6701C164.618 15.9485 163.688 15.6202 162.494 15.6853C161.3 15.7504 160.37 16.1821 159.699 16.9747C159.028 17.7702 158.691 18.7076 158.691 19.787V22.1794C158.691 23.2588 159.025 24.1608 159.699 24.8824C160.37 25.6039 161.3 25.9322 162.494 25.8671C163.688 25.8021 164.618 25.3733 165.289 24.5778C165.96 23.7823 166.296 22.8448 166.296 21.7654V19.373Z" fill="#662D91"/>
<path d="M200.358 41.2272L228.494 39.6894V23.8385L221.19 24.2377V26.8992L208.409 27.5971L200.358 30.3444V41.2272ZM221.19 32.0685V34.5378L207.662 35.2771V32.8078L221.19 32.0685Z" fill="#CA4491"/>
<path d="M228.494 22.7206V20.7452L221.601 23.0992L228.494 22.7206Z" fill="#CA4491"/>
<path d="M207.662 24.977L200.358 25.3763V30.3445L208.409 27.5972L207.662 27.6386V24.977Z" fill="#662D91"/>
<path d="M221.19 6.07422V11.1637L217.166 11.3825V6.48823L209.863 6.88746V9.895L204.831 10.17V7.16249L197.528 7.56172V24.3767L217.169 23.3032V17.711L221.193 17.4922V23.1228L221.604 23.0992L228.497 20.7481V5.67499L221.19 6.07422ZM209.86 17.9535L204.828 18.2286V15.4517L209.86 15.1767V17.9535Z" fill="#662D91"/>
<path d="M235.762 32.0804L256.594 30.9418V38.3852L263.897 37.986V24.3708L235.762 25.9115V32.0804Z" fill="#CA4491"/>
<path d="M254.618 11.9976V11.835L254.047 12.0301L254.618 11.9976Z" fill="#662D91"/>
<path d="M235.313 24.6221C236.976 23.6817 238.504 22.7709 239.898 21.8837C241.29 20.9965 242.605 20.0709 243.848 19.1039C245.116 19.9083 246.407 20.6624 247.725 21.3603C249.042 22.0611 250.434 22.7679 251.899 23.4836L255.737 18.338C254.493 17.6607 253.214 16.9066 251.899 16.0786C250.685 15.3156 249.607 14.5822 248.646 13.8695L231.779 19.6244L235.313 24.6221Z" fill="#CA4491"/>
<path d="M247.539 6.52372V3.74686L239.86 4.16679V6.94365L232.669 7.33697V13.1983L239.824 12.8079C239.774 13.1716 239.656 13.491 239.47 13.772C239.284 14.0529 239.015 14.3427 238.669 14.6444C237.6 15.5256 236.489 16.3507 235.334 17.1225C234.178 17.8944 232.955 18.6721 231.664 19.4647L231.779 19.6273L248.646 13.8725C248.564 13.8104 248.478 13.7483 248.395 13.6892C248.147 13.5236 247.961 13.3343 247.837 13.1214C247.713 12.9114 247.624 12.663 247.577 12.385L254.047 12.0301L254.62 11.835V6.13632L247.539 6.52372Z" fill="#662D91"/>
<path d="M256.594 11.1607V23.6137L263.897 23.2145V8.66772L256.594 11.1607Z" fill="#CA4491"/>
<path d="M263.897 3.74094L256.594 4.14017V11.1607L263.897 8.66773V3.74094Z" fill="#662D91"/>
<path d="M0 27.8751L16.3442 50.9477L4.32537 24.6931L0 27.8751Z" fill="#FCEE21"/>
<path d="M0.0239258 43.9626L14.2084 52.2518L1.21458 40.9166L0.0239258 43.9626Z" fill="#FCEE21"/>
</g>
<defs>
<clipPath id="clip0_9_31">
<rect width="267" height="53" fill="white"/>
</clipPath>
</defs>
</svg>
