<svg width="493" height="96" viewBox="0 0 493 96" fill="none" xmlns="http://www.w3.org/2000/svg">
<path d="M467.622 12.392V0.00799561H452.454V14.888H459.366C459.366 19.784 456.39 23.336 451.302 23.816V31.4C461.766 30.536 467.622 22.664 467.622 12.392ZM487.782 12.392V0.00799561H472.614V14.888H479.526C479.526 19.784 476.55 23.336 471.462 23.816V31.4C481.926 30.536 487.782 22.664 487.782 12.392Z" fill="#FCEE21" fill-opacity="0.3"/>
<path d="M5.26213 31.4H20.4301V16.52H13.5181C13.5181 11.624 16.4941 8.07199 21.5821 7.592V0.00799561C11.1181 0.871996 5.26213 8.744 5.26213 19.016V31.4ZM25.4221 31.4H40.5901V16.52H33.6781C33.6781 11.624 36.6541 8.07199 41.7421 7.592V0.00799561C31.2781 0.871996 25.4221 8.744 25.4221 19.016V31.4Z" fill="#FCEE21" fill-opacity="0.3"/>
</svg>
