<svg width="107" height="108" viewBox="0 0 107 108" fill="none" xmlns="http://www.w3.org/2000/svg">
<path d="M106.565 54.0563C106.653 83.4318 82.5598 107.559 53.3862 107.49C24.3262 107.424 0.383015 83.3096 0.434164 53.8959C0.485312 24.6006 24.4152 0.467484 53.5926 0.509485C82.7132 0.551485 106.713 24.7037 106.565 54.0563ZM4.90682 53.9532C4.8102 80.9041 26.6298 102.935 53.3956 102.998C80.2353 103.061 102.087 81.0454 102.134 54.0925C102.182 27.0481 80.3301 5.03599 53.5813 4.99972C26.806 4.96153 4.86325 26.9373 4.90682 53.9532Z" fill="#FCEE21" fill-opacity="0.15"/>
<path d="M53.5211 9.16032C77.3821 8.96962 98.0476 29.0137 97.9853 54.0312C97.921 79.2832 77.5503 98.8601 53.4738 98.841C29.0081 98.8219 8.9454 78.5261 9.01532 53.8576C9.08713 29.0824 29.3407 9.02683 53.5211 9.16032ZM55.5714 91.3772C55.5733 91.3772 55.5771 91.3772 55.5789 91.3772C55.5789 92.0751 55.6111 92.7769 55.5695 93.4729C55.5317 94.1136 55.7528 94.2624 56.3877 94.2204C61.4143 93.8982 66.1649 92.5728 70.7002 90.3855C71.3559 90.069 71.337 89.7639 71.0139 89.2223C70.3317 88.0819 69.6835 86.9187 69.0448 85.7535C68.5837 84.9125 68.7273 84.0811 69.2508 83.3317C69.7818 82.5689 70.5868 82.4335 71.4428 82.546C72.2459 82.6509 72.6957 83.2516 73.0755 83.8733C73.7369 84.9526 74.3567 86.0586 74.969 87.1685C75.2241 87.6281 75.4641 87.7272 75.9289 87.4011C80.0692 84.4797 83.6237 80.9766 86.4355 76.7221C86.7776 76.2053 86.6415 75.9594 86.154 75.6924C85.0221 75.0707 83.8883 74.4452 82.796 73.7549C81.5507 72.9692 81.2125 71.6763 81.8814 70.5684C82.5334 69.4909 83.8864 69.2068 85.1109 69.9047C86.1785 70.5131 87.2519 71.1138 88.2988 71.7583C88.8713 72.1111 89.2077 72.0062 89.4553 71.3845C89.8313 70.4425 90.2584 69.5233 90.6306 68.5794C92.0706 64.9257 92.8661 61.1213 93.2233 57.2139C93.2932 56.4435 93.0627 56.1212 92.2463 56.1555C90.9594 56.2108 89.6669 56.1899 88.3781 56.1574C87.2538 56.1307 86.4866 55.4213 86.307 54.3191C86.0897 52.9862 87.027 51.8572 88.5595 51.7504C89.7803 51.6665 91.0142 51.6818 92.2388 51.7237C93.0456 51.7504 93.3215 51.4167 93.2157 50.6501C93.0872 49.7081 92.9833 48.7622 92.8548 47.8202C92.32 43.888 91.1031 40.1675 89.4571 36.5748C89.1491 35.9017 88.8619 35.8406 88.2591 36.2297C87.2519 36.878 86.1993 37.4539 85.1506 38.0298C83.7768 38.7831 82.5182 38.497 81.8776 37.3185C81.2522 36.1706 81.6868 34.8986 82.9963 34.1167C83.9695 33.5332 84.9446 32.9478 85.9499 32.4253C86.6699 32.0515 86.8078 31.7197 86.2976 30.9874C83.4461 26.8875 79.9596 23.4511 75.9025 20.5792C75.4055 20.2264 75.1806 20.2836 74.899 20.8081C74.2717 21.9808 73.6254 23.146 72.9149 24.2692C72.1703 25.4477 71.0951 25.7681 69.9991 25.2436C68.8067 24.6735 68.4118 23.3481 69.1015 21.9923C69.6174 20.9778 70.2202 20.0052 70.7909 19.0193C71.4107 17.9495 71.4201 17.94 70.2769 17.3889C65.9136 15.2874 61.2971 14.147 56.4992 13.6798C55.7925 13.6112 55.543 13.8629 55.5657 14.578C55.6073 15.8156 55.5865 17.0551 55.5733 18.2928C55.5582 19.7173 54.7173 20.6727 53.4606 20.7203C52.1964 20.7699 51.2591 19.887 51.1571 18.4663C51.0928 17.5815 51.1325 16.689 51.1325 15.8004C51.1306 13.6894 51.1269 13.6436 49.0614 13.8553C44.5791 14.3148 40.3028 15.5296 36.2418 17.5166C35.5578 17.8523 35.4671 18.2012 35.8488 18.8401C36.5158 19.9537 37.147 21.0903 37.7517 22.2383C38.2203 23.1307 38.0559 24.1052 37.3964 24.7898C36.7294 25.4801 35.7694 25.688 34.9776 25.2818C34.3408 24.9557 33.8967 24.4217 33.549 23.8039C32.9727 22.7837 32.3831 21.7711 31.8332 20.7356C31.5989 20.2932 31.3835 20.2264 30.9621 20.5163C26.7235 23.4263 23.1917 27.0457 20.2684 31.2849C19.9528 31.7426 20.0246 31.9657 20.5008 32.2308C21.7367 32.923 22.9933 33.5981 24.1479 34.4142C25.3119 35.2361 25.4858 36.4471 24.7677 37.4864C24.0477 38.5276 22.895 38.7526 21.6819 38.068C20.7219 37.5264 19.7695 36.9658 18.8171 36.4108C17.7381 35.7834 17.7041 35.7815 17.1617 36.9314C15.1114 41.2793 14.006 45.8751 13.5562 50.6578C13.4769 51.493 13.6545 51.7295 14.4538 51.7257C15.8049 51.7199 17.1617 51.596 18.5053 51.8038C19.8848 52.0174 20.5499 52.8813 20.446 54.2448C20.361 55.368 19.4445 56.1498 18.1633 56.1651C16.8726 56.1803 15.582 56.1937 14.2932 56.1613C13.6016 56.1441 13.4164 56.3958 13.5392 57.0766C13.6923 57.9157 13.7244 58.7776 13.8397 59.6262C14.3934 63.7109 15.529 67.6221 17.2921 71.3483C17.5869 71.9719 17.8647 72.1473 18.4996 71.743C19.5352 71.0813 20.6142 70.4883 21.6951 69.9009C22.9838 69.2011 24.2632 69.4967 24.9019 70.6008C25.5368 71.6973 25.1419 73.0074 23.9079 73.7702C22.9158 74.3842 21.92 74.9944 20.8863 75.5341C20.1266 75.9307 19.9944 76.2759 20.5235 77.0387C23.3372 81.091 26.8029 84.4587 30.7939 87.3096C31.3797 87.7291 31.6442 87.588 31.9485 87.0216C32.5626 85.8775 33.1806 84.7314 33.8741 83.6368C34.6337 82.4392 35.9489 82.1703 37.0752 82.8893C38.0465 83.5109 38.3054 84.8572 37.6553 86.0167C37.0374 87.1227 36.4214 88.2307 35.76 89.31C35.4349 89.8401 35.4916 90.1052 36.0737 90.3855C40.5239 92.5156 45.1781 93.841 50.1026 94.2014C50.9417 94.2624 51.1949 94.0545 51.1798 93.1945C51.1533 91.7719 51.0097 90.334 51.3045 88.921C51.5331 87.8245 52.512 87.1284 53.5967 87.239C54.7513 87.3554 55.5128 88.1315 55.5638 89.2852C55.596 89.9793 55.5714 90.6773 55.5714 91.3772Z" fill="#FCEE21" fill-opacity="0.15"/>
<path d="M55.7778 41.6284C55.7778 45.0918 55.793 48.557 55.7664 52.0204C55.7607 52.7745 55.9792 53.3359 56.5206 53.8724C59.6459 56.9768 62.7483 60.1079 65.8469 63.241C66.907 64.314 67.0761 65.1846 66.4872 66.2156C65.75 67.5062 64.3441 67.8022 63.1852 66.8609C62.6229 66.4027 62.1308 65.8567 61.616 65.3412C59.1082 62.8286 56.5909 60.3237 54.1097 57.7844C53.574 57.2364 53.2263 57.1925 52.6374 57.729C46.7289 63.0997 40.7976 68.4437 34.8701 73.7934C34.5642 74.0702 34.2565 74.3432 33.9297 74.5952C32.8126 75.4563 31.6157 75.3398 30.7342 74.2974C29.9628 73.3848 30.1034 72.0655 31.1084 71.1453C32.8145 69.5854 34.5395 68.0427 36.2589 66.4963C40.3796 62.7866 44.5023 59.0808 48.6249 55.3711C48.7902 55.2222 48.9289 55.0351 49.1151 54.9243C50.9731 53.817 51.3284 52.1655 51.2847 50.0844C51.1555 43.9539 51.2353 37.8195 51.2448 31.6851C51.2448 31.1161 51.279 30.5357 51.393 29.982C51.6001 28.9816 52.5291 28.2752 53.5265 28.279C54.5315 28.2828 55.4206 28.9854 55.6296 30.0107C55.736 30.5357 55.7721 31.0818 55.774 31.6202C55.7835 34.9556 55.7778 38.2911 55.7778 41.6284Z" fill="#FCEE21" fill-opacity="0.15"/>
</svg>
